<?xml version="1.0" standalone="no"?>
<!DOCTYPE svg PUBLIC "-//W3C//DTD SVG 20010904//EN"
 "http://www.w3.org/TR/2001/REC-SVG-20010904/DTD/svg10.dtd">
<svg version="1.0" xmlns="http://www.w3.org/2000/svg"
 width="620.000000pt" height="620.000000pt" viewBox="0 0 620.000000 620.000000"
 preserveAspectRatio="xMidYMid meet">
<metadata>
Created by potrace 1.11, written by Peter Selinger 2001-2013
</metadata>
<g transform="translate(0.000000,620.000000) scale(0.100000,-0.100000)"
fill="#000000" stroke="none">
<path d="M2827 6174 c-1 -1 -47 -5 -102 -8 -177 -10 -277 -20 -339 -32 -11 -2
-38 -6 -61 -9 -40 -6 -67 -11 -115 -21 -14 -3 -36 -7 -50 -10 -58 -11 -220
-55 -285 -77 -144 -50 -206 -74 -218 -86 -6 -6 -16 -11 -23 -11 -11 0 -96 -43
-177 -89 -216 -122 -418 -309 -556 -513 -46 -68 -132 -226 -137 -253 -1 -5 -8
-23 -15 -40 -7 -16 -13 -32 -14 -35 -1 -3 -4 -12 -7 -20 -80 -213 -110 -559
-74 -830 18 -129 17 -125 58 -285 11 -44 21 -85 22 -92 1 -7 5 -16 9 -19 4 -4
7 -13 7 -21 0 -19 73 -202 117 -292 34 -68 120 -218 133 -231 3 -3 25 -32 50
-65 41 -55 96 -119 145 -168 41 -40 168 -138 213 -164 26 -14 54 -32 62 -38
27 -21 262 -124 354 -155 84 -28 89 -29 112 -12 13 9 24 20 24 24 0 12 113 94
182 132 61 33 178 82 221 92 9 2 26 6 38 9 11 2 29 7 39 10 19 6 50 11 135 22
94 12 318 6 428 -12 77 -13 151 -29 247 -55 151 -39 363 -128 494 -207 142
-85 292 -213 362 -308 16 -22 34 -45 39 -51 6 -6 19 -28 30 -50 11 -21 23 -41
26 -44 3 -3 11 -21 18 -40 7 -19 17 -44 21 -55 38 -94 45 -249 15 -353 -16
-54 -71 -181 -84 -192 -3 -3 -18 -23 -33 -45 -44 -64 -144 -161 -231 -222 -96
-68 -261 -153 -354 -183 -37 -12 -75 -24 -83 -27 -19 -8 -11 -6 -100 -26 -92
-20 -113 -24 -198 -33 -114 -13 -406 -6 -461 10 -9 3 -32 8 -51 11 -114 19
-267 69 -390 128 -340 161 -580 484 -592 793 l-1 41 -131 43 c-72 24 -144 49
-161 56 -16 7 -64 24 -105 39 -41 15 -84 30 -95 35 -11 4 -58 23 -105 40 -47
18 -99 38 -117 46 -17 8 -35 14 -41 14 -7 0 -85 -194 -87 -220 -1 -3 -8 -30
-18 -60 -19 -61 -50 -170 -53 -185 -1 -5 -11 -46 -22 -90 -25 -96 -26 -103
-58 -279 -50 -286 -49 -486 3 -636 53 -150 120 -244 243 -341 75 -59 310 -189
310 -172 0 3 6 1 12 -5 37 -29 369 -128 533 -157 44 -8 92 -17 107 -20 42 -8
117 -19 208 -29 25 -3 65 -8 90 -11 50 -6 109 -11 245 -22 117 -9 822 -10 945
-1 97 7 170 14 250 24 87 11 95 12 135 18 22 4 54 8 70 11 155 22 415 88 562
141 54 20 104 36 111 36 6 1 12 5 12 10 0 4 7 8 15 8 44 0 390 195 445 250 3
3 25 21 50 41 59 49 146 135 190 189 19 24 40 48 45 54 20 23 75 107 75 115 0
5 3 11 8 13 11 5 78 136 111 220 29 73 74 223 84 278 36 193 41 248 41 440 1
157 -8 308 -19 350 -2 8 -7 31 -10 50 -16 101 -89 329 -121 377 -8 13 -12 23
-9 23 7 0 -97 174 -107 178 -4 2 -8 8 -8 14 0 29 -297 338 -325 338 -5 0 -39
26 -67 53 -11 10 -52 39 -91 64 -40 25 -83 53 -97 62 -14 8 -27 16 -30 16 -3
0 -16 8 -30 17 -45 29 -182 108 -188 108 -3 0 -13 6 -21 14 -9 7 -52 33 -96
56 -44 24 -98 52 -120 64 -90 49 -211 75 -333 71 -90 -3 -167 -21 -310 -73
-46 -17 -102 -33 -125 -36 -23 -4 -55 -9 -72 -12 -83 -17 -342 -5 -475 21 -68
13 -463 106 -470 110 -3 2 -21 6 -40 9 -39 6 -72 13 -110 21 -14 4 -34 8 -45
9 -11 2 -63 11 -115 21 -52 10 -104 19 -115 20 -11 2 -36 6 -55 10 -49 9 -68
12 -125 19 -106 13 -152 27 -186 55 -32 27 -34 32 -34 92 0 73 25 135 77 188
44 45 84 64 146 67 47 2 269 -29 392 -56 25 -5 56 -12 70 -14 14 -3 79 -16
145 -30 66 -15 129 -28 140 -30 11 -2 47 -11 80 -19 33 -9 72 -18 87 -21 15
-2 31 -7 36 -10 5 -3 22 -7 38 -10 16 -3 59 -14 96 -24 37 -11 71 -16 76 -13
5 3 19 33 31 66 13 33 27 68 32 77 13 25 11 45 -3 45 -7 0 -42 8 -78 18 -36 9
-73 19 -83 20 -9 2 -21 6 -25 9 -5 3 -22 7 -38 10 -16 3 -56 13 -89 22 -33 8
-69 17 -80 19 -11 1 -51 10 -90 20 -38 9 -77 18 -85 19 -64 13 -96 20 -105 22
-9 3 -63 13 -155 29 -19 3 -66 12 -105 20 -38 8 -95 17 -125 21 -67 8 -124 36
-147 70 -24 38 -21 110 9 175 30 65 69 106 123 130 50 22 91 25 175 10 36 -6
79 -13 95 -16 17 -3 41 -8 55 -11 14 -3 34 -8 45 -10 55 -9 78 -14 175 -34
128 -27 535 -127 570 -141 14 -5 34 -11 45 -13 11 -3 34 -8 51 -11 29 -7 32
-5 49 37 54 134 55 139 42 143 -51 16 -157 46 -175 50 -23 5 -32 8 -92 24 -58
16 -313 80 -340 85 -14 2 -70 14 -125 26 -55 12 -111 24 -125 26 -14 3 -32 7
-40 9 -8 3 -32 7 -54 11 -21 3 -48 8 -60 10 -11 3 -43 9 -71 15 -27 5 -55 10
-62 12 -23 6 -71 65 -78 97 -18 83 31 188 115 245 39 26 54 30 110 30 63 -1
129 -8 160 -19 8 -3 31 -7 50 -10 35 -6 68 -12 105 -20 11 -3 63 -14 115 -26
52 -12 131 -30 175 -41 44 -12 87 -22 95 -24 57 -12 368 -102 435 -125 101
-36 255 -113 314 -157 39 -28 142 -115 166 -139 32 -32 145 -179 145 -189 0
-15 94 -150 138 -197 58 -62 150 -129 228 -165 33 -15 61 -28 64 -28 12 -2
276 -92 399 -136 125 -45 135 -47 147 -31 23 29 154 308 158 336 1 6 4 16 8
21 22 37 92 297 112 420 29 178 22 354 -20 505 -31 110 -84 201 -164 281 -62
62 -94 85 -190 133 -63 32 -116 58 -118 57 -1 -1 -17 5 -35 13 -89 41 -339
130 -395 141 -9 2 -17 4 -17 5 0 1 -7 3 -15 5 -8 1 -42 10 -75 20 -33 9 -69
18 -80 20 -11 2 -51 11 -90 20 -65 14 -129 27 -214 41 -18 3 -42 7 -53 9 -11
3 -46 7 -77 10 -31 4 -67 8 -81 10 -146 22 -393 36 -663 39 -114 1 -209 1
-210 0z"/>
</g>
</svg>
