<?xml version="1.0" encoding="UTF-8"?>
<!DOCTYPE svg PUBLIC "-//W3C//DTD SVG 1.1//EN" "http://www.w3.org/Graphics/SVG/1.1/DTD/svg11.dtd">
<!-- Creator: CorelDRAW (Evaluation Version) -->
<svg xmlns="http://www.w3.org/2000/svg" xml:space="preserve" width="33mm" height="41mm" version="1.1" style="shape-rendering:geometricPrecision; text-rendering:geometricPrecision; image-rendering:optimizeQuality; fill-rule:evenodd; clip-rule:evenodd"
viewBox="0 0 3300 4100"
 xmlns:xlink="http://www.w3.org/1999/xlink"
 xmlns:xodm="http://www.corel.com/coreldraw/odm/2003">
 <defs>
  <style type="text/css">
   <![CDATA[
    .fil0 {fill:#99C333;fill-rule:nonzero}
   ]]>
  </style>
 </defs>
 <g id="Layer_x0020_1">
  <metadata id="CorelCorpID_0Corel-Layer"/>
  <path class="fil0" d="M2859.3 1965.77c-9.44,-6.67 -18.05,-15.27 -25.9,-25.41 -138.63,-86.71 -278.13,-168.56 -418.41,-245.04 -116.32,-62.5 -252.95,-72.86 -385.23,-21.65 -154.41,71.17 -362.84,72.96 -596.18,13.97 -225.05,-57.05 -450.33,-101.37 -674.81,-132.89 -73.53,-10.21 -102.59,-67.59 -72.93,-145.28 29.71,-77.59 98.41,-123.11 171.99,-111.91 224.63,33.95 449.95,80.78 674.96,140.28 12.26,3.24 36.83,9.76 61.35,16.51 16.51,-41.45 33.08,-82.86 49.59,-124.26 -245.35,-68.77 -491.22,-122.44 -736.35,-160.89 -73.53,-11.46 -102.72,-69.45 -73.02,-146.8 29.75,-77.28 98.51,-121.74 172.12,-109.33 245.27,41.13 491.15,97.48 736.37,168.92 16.56,-41.27 33.07,-82.55 49.55,-123.77 -12.27,-3.66 -36.74,-10.87 -61.31,-17.86 -224.82,-64.41 -450.18,-116.18 -675.05,-155.09 -73.58,-12.68 -102.77,-71.26 -73.07,-148.3 29.76,-76.89 98.61,-120.33 172.26,-106.78 224.92,41.41 450.28,95.63 675.02,162.5 220.65,65.74 378.98,193.91 468.51,353.81 62.87,121.82 169.66,206.22 295.52,247.26 111.83,35.49 223.1,74.4 333.82,116.04 125.3,-221.3 201.27,-479.25 201.27,-662.02 0,-228.74 -78.75,-382.59 -236.3,-461.33 -352.61,-180.04 -789.56,-270.02 -1310.78,-270.02 -498.92,0 -884.27,106 -1156.16,317.86 -271.96,211.91 -407.85,499.79 -407.85,863.55 0,348.78 154.21,756.12 401.75,969.93 54.59,47.19 113.77,85.88 177.57,119.42 46.27,21.47 92.55,42.48 138.86,62.87 40.63,15.69 82.95,30.27 127.24,44.1 86.42,-93.14 199.41,-154.16 339.2,-186.93 143.88,-33.82 302.63,-29.19 475.63,10.33 152.69,34.92 291.4,90.03 416.19,168.04 124.78,77.96 216.34,169.12 275.39,278.08 59.03,108.73 69.81,218.48 32.52,330.02 -37.34,111.24 -118.44,211.04 -244.25,294 -125.8,82.86 -270.53,137 -434.32,158.51 -163.89,21.57 -322.82,8.84 -476.43,-36.73 -174.01,-51.69 -307.6,-136.86 -400.31,-247.73 -92.76,-110.94 -139.91,-232.86 -141.63,-362.51 -167.91,-54.09 -335.77,-115.57 -503.16,-183.22 -103.6,262.66 -178.61,600 -178.61,787.16 0,123.77 28.09,225.98 84.36,306.58 56.25,80.69 146.25,149.12 270.06,205.38 273.72,123.77 660.06,185.64 1158.93,185.64 1170.18,0 1755.25,-414.38 1755.25,-1243.33 0,-194.98 -35.68,-366.49 -106.88,-514.73 -71.31,-148.15 -180.04,-273.77 -326.34,-376.95z"/>
 </g>
</svg>
